<?xml version="1.0" encoding="UTF-8" standalone="no"?>
<!-- Created with Inkscape (http://www.inkscape.org/) -->

<svg
   xmlns:dc="http://purl.org/dc/elements/1.1/"
   xmlns:cc="http://creativecommons.org/ns#"
   xmlns:rdf="http://www.w3.org/1999/02/22-rdf-syntax-ns#"
   xmlns:svg="http://www.w3.org/2000/svg"
   xmlns="http://www.w3.org/2000/svg"
   xmlns:sodipodi="http://sodipodi.sourceforge.net/DTD/sodipodi-0.dtd"
   xmlns:inkscape="http://www.inkscape.org/namespaces/inkscape"
   width="210mm"
   height="297mm"
   viewBox="0 0 744.09448819 1052.3622047"
   id="svg2"
   version="1.1"
   inkscape:version="0.91 r13725"
   sodipodi:docname="fullstack.svg">
  <defs
     id="defs4">
    <inkscape:perspective
       sodipodi:type="inkscape:persp3d"
       inkscape:vp_x="5.7142857 : 609.03823 : 1"
       inkscape:vp_y="0 : 999.99998 : 0"
       inkscape:vp_z="749.80877 : 609.03823 : 1"
       inkscape:persp3d-origin="377.76153 : 433.64453 : 1"
       id="perspective3388" />
    <inkscape:perspective
       sodipodi:type="inkscape:persp3d"
       inkscape:vp_x="-2.8571429 : 626.1811 : 1"
       inkscape:vp_y="0 : 1000 : 0"
       inkscape:vp_z="741.23735 : 626.1811 : 1"
       inkscape:persp3d-origin="369.1901 : 450.7874 : 1"
       id="perspective3338" />
  </defs>
  <sodipodi:namedview
     id="base"
     pagecolor="#ffffff"
     bordercolor="#666666"
     borderopacity="1.0"
     inkscape:pageopacity="0.0"
     inkscape:pageshadow="2"
     inkscape:zoom="0.35"
     inkscape:cx="-317.85714"
     inkscape:cy="520"
     inkscape:document-units="px"
     inkscape:current-layer="layer1"
     showgrid="false"
     inkscape:window-width="1920"
     inkscape:window-height="1149"
     inkscape:window-x="0"
     inkscape:window-y="0"
     inkscape:window-maximized="1" />
  <metadata
     id="metadata7">
    <rdf:RDF>
      <cc:Work
         rdf:about="">
        <dc:format>image/svg+xml</dc:format>
        <dc:type
           rdf:resource="http://purl.org/dc/dcmitype/StillImage" />
        <dc:title></dc:title>
      </cc:Work>
    </rdf:RDF>
  </metadata>
  <g
     inkscape:label="Layer 1"
     inkscape:groupmode="layer"
     id="layer1">
    <g
       sodipodi:type="inkscape:box3d"
       id="g3340"
       style="fill:#ff757b;fill-rule:evenodd;stroke:none;stroke-width:1px;stroke-linecap:butt;stroke-linejoin:round;stroke-opacity:1;fill-opacity:1"
       inkscape:perspectiveID="#perspective3338"
       inkscape:corner0="5.8535018 : 0.98798068 : 0 : 1"
       inkscape:corner7="1.7128444 : 0.38759024 : 0.25 : 1">
      <path
         sodipodi:type="inkscape:box3dside"
         id="path3352"
         style="fill:#ff757b;fill-rule:evenodd;stroke:none;stroke-width:1px;stroke-linecap:butt;stroke-linejoin:round;stroke-opacity:1;fill-opacity:1"
         inkscape:box3dsidetype="11"
         d="m 75.705639,311.78867 109.793671,-159.86663 0,202.63988 -109.793671,41.7471 z"
         points="185.49931,151.92204 185.49931,354.56192 75.705639,396.30902 75.705639,311.78867 " />
      <path
         sodipodi:type="inkscape:box3dside"
         id="path3342"
         style="fill:#ff757b;fill-rule:evenodd;stroke:none;stroke-width:1px;stroke-linecap:butt;stroke-linejoin:round;stroke-opacity:1;fill-opacity:1"
         inkscape:box3dsidetype="6"
         d="m 51.428571,307.6159 0,87.60345 24.277068,1.08967 0,-84.52035 z"
         points="51.428571,395.21935 75.705639,396.30902 75.705639,311.78867 51.428571,307.6159 " />
      <path
         sodipodi:type="inkscape:box3dside"
         id="path3344"
         style="fill:#ff757b;fill-rule:evenodd;stroke:none;stroke-width:1px;stroke-linecap:butt;stroke-linejoin:round;stroke-opacity:1;fill-opacity:1"
         inkscape:box3dsidetype="5"
         d="M 51.428571,307.6159 134.28572,126.64792 185.49931,151.92204 75.705639,311.78867 Z"
         points="134.28572,126.64792 185.49931,151.92204 75.705639,311.78867 51.428571,307.6159 " />
      <path
         sodipodi:type="inkscape:box3dside"
         id="path3350"
         style="fill:#ff757b;fill-rule:evenodd;stroke:none;stroke-width:1px;stroke-linecap:butt;stroke-linejoin:round;stroke-opacity:1;fill-opacity:1"
         inkscape:box3dsidetype="13"
         d="m 51.428571,395.21935 82.857149,-47.25744 51.21359,6.60001 -109.793671,41.7471 z"
         points="134.28572,347.96191 185.49931,354.56192 75.705639,396.30902 51.428571,395.21935 " />
      <path
         sodipodi:type="inkscape:box3dside"
         id="path3348"
         style="fill:#ff757b;fill-rule:evenodd;stroke:none;stroke-width:1px;stroke-linecap:butt;stroke-linejoin:round;stroke-opacity:1;fill-opacity:1"
         inkscape:box3dsidetype="14"
         d="m 134.28572,126.64792 0,221.31399 51.21359,6.60001 0,-202.63988 z"
         points="134.28572,347.96191 185.49931,354.56192 185.49931,151.92204 134.28572,126.64792 " />
      <path
         sodipodi:type="inkscape:box3dside"
         id="path3346"
         style="fill:#ff757b;fill-rule:evenodd;stroke:none;stroke-width:1px;stroke-linecap:butt;stroke-linejoin:round;stroke-opacity:1;fill-opacity:1"
         inkscape:box3dsidetype="3"
         d="m 51.428571,307.6159 82.857149,-180.96798 0,221.31399 -82.857149,47.25744 z"
         points="134.28572,126.64792 134.28572,347.96191 51.428571,395.21935 51.428571,307.6159 " />
    </g>
    <text
       xml:space="preserve"
       style="font-style:normal;font-weight:normal;font-size:32.69009781px;line-height:125%;font-family:sans-serif;letter-spacing:0px;word-spacing:0px;fill:#de0000;fill-opacity:1;stroke:none;stroke-width:1px;stroke-linecap:butt;stroke-linejoin:miter;stroke-opacity:1;"
       x="61.30764"
       y="61.473186"
       id="text3354"
       sodipodi:linespacing="125%"
       transform="scale(0.8172524,1.2236122)"><tspan
         sodipodi:role="line"
         id="tspan3356"
         x="61.30764"
         y="61.473186"
         style="font-style:normal;font-variant:normal;font-weight:500;font-stretch:normal;font-size:57.2076683px;line-height:125%;font-family:KacstBook;-inkscape-font-specification:'KacstBook, Medium';text-align:start;writing-mode:lr-tb;text-anchor:start;fill:#de0000;fill-opacity:1;">Server - a remote computer</tspan></text>
    <text
       xml:space="preserve"
       style="font-style:normal;font-variant:normal;font-weight:500;font-stretch:normal;font-size:40px;line-height:125%;font-family:aakar;-inkscape-font-specification:'aakar, Medium';text-align:start;letter-spacing:0px;word-spacing:0px;writing-mode:lr-tb;text-anchor:start;fill:#000000;fill-opacity:1;stroke:none;stroke-width:1px;stroke-linecap:butt;stroke-linejoin:miter;stroke-opacity:1"
       x="294.28571"
       y="158.07649"
       id="text3366"
       sodipodi:linespacing="125%"><tspan
         sodipodi:role="line"
         id="tspan3368"
         x="294.28571"
         y="158.07649">MySQL database</tspan></text>
    <text
       xml:space="preserve"
       style="font-style:normal;font-variant:normal;font-weight:500;font-stretch:normal;font-size:40px;line-height:125%;font-family:aakar;-inkscape-font-specification:'aakar, Medium';text-align:start;letter-spacing:0px;word-spacing:0px;writing-mode:lr-tb;text-anchor:start;fill:#000000;fill-opacity:1;stroke:none;stroke-width:1px;stroke-linecap:butt;stroke-linejoin:miter;stroke-opacity:1"
       x="302.85715"
       y="300.93362"
       id="text3370"
       sodipodi:linespacing="125%"><tspan
         sodipodi:role="line"
         id="tspan3372"
         x="302.85715"
         y="300.93362">PHP prog lang</tspan></text>
    <g
       sodipodi:type="inkscape:box3d"
       id="g3374"
       inkscape:perspectiveID="#perspective3388"
       inkscape:corner0="3.8228346 : -0.78147276 : 0 : 1"
       inkscape:corner7="1.9594667 : -1.2489675 : 0.67570401 : 1">
      <path
         sodipodi:type="inkscape:box3dside"
         id="path3384"
         style="fill:#afafde;fill-rule:evenodd;stroke:none;stroke-width:1px;stroke-linecap:butt;stroke-linejoin:round;stroke-opacity:1"
         inkscape:box3dsidetype="13"
         d="M 82.857143,738.66091 131.42857,924.61379 246.37282,835.15184 164.81744,702.36757 Z"
         points="131.42857,924.61379 246.37282,835.15184 164.81744,702.36757 82.857143,738.66091 " />
      <path
         sodipodi:type="inkscape:box3dside"
         id="path3376"
         style="fill:#353564;fill-rule:evenodd;stroke:none;stroke-width:1px;stroke-linecap:butt;stroke-linejoin:round;stroke-opacity:1"
         inkscape:box3dsidetype="6"
         d="m 82.857143,641.72731 0,96.9336 81.960297,-36.29334 0,-85.02163 z"
         points="82.857143,738.66091 164.81744,702.36757 164.81744,617.34594 82.857143,641.72731 " />
      <path
         sodipodi:type="inkscape:box3dside"
         id="path3386"
         style="fill:#e9e9ff;fill-rule:evenodd;stroke:none;stroke-width:1px;stroke-linecap:butt;stroke-linejoin:round;stroke-opacity:1"
         inkscape:box3dsidetype="11"
         d="m 164.81744,617.34594 81.55538,89.20267 0,128.60323 -81.55538,-132.78427 z"
         points="246.37282,706.54861 246.37282,835.15184 164.81744,702.36757 164.81744,617.34594 " />
      <path
         sodipodi:type="inkscape:box3dside"
         id="path3378"
         style="fill:#4d4d9f;fill-rule:evenodd;stroke:none;stroke-width:1px;stroke-linecap:butt;stroke-linejoin:round;stroke-opacity:1"
         inkscape:box3dsidetype="5"
         d="M 82.857143,641.72731 131.42857,766.64792 246.37282,706.54861 164.81744,617.34594 Z"
         points="131.42857,766.64792 246.37282,706.54861 164.81744,617.34594 82.857143,641.72731 " />
      <path
         sodipodi:type="inkscape:box3dside"
         id="path3382"
         style="fill:#d7d7ff;fill-rule:evenodd;stroke:none;stroke-width:1px;stroke-linecap:butt;stroke-linejoin:round;stroke-opacity:1"
         inkscape:box3dsidetype="14"
         d="m 131.42857,766.64792 0,157.96587 114.94425,-89.46195 0,-128.60323 z"
         points="131.42857,924.61379 246.37282,835.15184 246.37282,706.54861 131.42857,766.64792 " />
      <path
         sodipodi:type="inkscape:box3dside"
         id="path3380"
         style="fill:#8686bf;fill-rule:evenodd;stroke:none;stroke-width:1px;stroke-linecap:butt;stroke-linejoin:round;stroke-opacity:1"
         inkscape:box3dsidetype="3"
         d="m 82.857143,641.72731 48.571427,124.92061 0,157.96587 -48.571427,-185.95288 z"
         points="131.42857,766.64792 131.42857,924.61379 82.857143,738.66091 82.857143,641.72731 " />
    </g>
    <text
       xml:space="preserve"
       style="font-style:normal;font-variant:normal;font-weight:500;font-stretch:normal;font-size:40px;line-height:125%;font-family:aakar;-inkscape-font-specification:'aakar, Medium';text-align:start;letter-spacing:0px;word-spacing:0px;writing-mode:lr-tb;text-anchor:start;fill:#000000;fill-opacity:1;stroke:none;stroke-width:1px;stroke-linecap:butt;stroke-linejoin:miter;stroke-opacity:1"
       x="394.28571"
       y="698.07648"
       id="text3390"
       sodipodi:linespacing="125%"><tspan
         sodipodi:role="line"
         id="tspan3392"
         x="394.28571"
         y="698.07648">HTML</tspan></text>
    <text
       xml:space="preserve"
       style="font-style:normal;font-variant:normal;font-weight:500;font-stretch:normal;font-size:40px;line-height:125%;font-family:aakar;-inkscape-font-specification:'aakar, Medium';text-align:start;letter-spacing:0px;word-spacing:0px;writing-mode:lr-tb;text-anchor:start;fill:#000000;fill-opacity:1;stroke:none;stroke-width:1px;stroke-linecap:butt;stroke-linejoin:miter;stroke-opacity:1"
       x="400"
       y="780.93365"
       id="text3394"
       sodipodi:linespacing="125%"><tspan
         sodipodi:role="line"
         id="tspan3396"
         x="400"
         y="780.93365">CSS</tspan></text>
    <text
       xml:space="preserve"
       style="font-style:normal;font-variant:normal;font-weight:500;font-stretch:normal;font-size:40px;line-height:125%;font-family:aakar;-inkscape-font-specification:'aakar, Medium';text-align:start;letter-spacing:0px;word-spacing:0px;writing-mode:lr-tb;text-anchor:start;fill:#000000;fill-opacity:1;stroke:none;stroke-width:1px;stroke-linecap:butt;stroke-linejoin:miter;stroke-opacity:1"
       x="400"
       y="849.50507"
       id="text3398"
       sodipodi:linespacing="125%"><tspan
         sodipodi:role="line"
         id="tspan3400"
         x="400"
         y="849.50507">JavaScript</tspan></text>
    <path
       style="fill:#ff757b;fill-opacity:1"
       d="m 61.142857,394.86679 -9.285714,-1.15235 0,-43.07612 0,-43.07612 40.467386,-88.29167 c 22.257061,-48.56041 41.525531,-88.94563 42.818821,-89.74493 1.2933,-0.7993 12.97583,4.07624 25.96119,10.83452 l 23.60975,12.2878 0.75058,100.48865 0.75058,100.48864 -30.75058,11.95755 c -38.33243,14.90578 -83.703509,31.5008 -84.463765,30.89362 -0.314894,-0.25148 -4.751105,-0.9758 -9.858248,-1.60959 z"
       id="path4202"
       inkscape:connector-curvature="0" />
    <path
       style="fill:#ff757b;fill-opacity:1"
       d="m 58.285714,394.91725 c -6.330801,-1.21936 -6.428571,-1.89947 -6.428571,-44.71802 l 0,-43.47982 39.969534,-86.86242 c 21.983243,-47.77433 41.090803,-87.98369 42.461233,-89.35413 1.41752,-1.41751 13.1474,2.79298 27.20871,9.76667 l 24.717,12.25838 -0.74967,101.18843 -0.74966,101.18843 L 129,375.89621 c -30.642857,11.54529 -57.642857,20.82669 -60,20.62534 -2.357143,-0.20136 -7.178571,-0.92329 -10.714286,-1.6043 z"
       id="path4204"
       inkscape:connector-curvature="0" />
    <path
       style="fill:#6c5353;fill-opacity:1"
       d="m 56.857143,394.96413 c -4.487169,-1.17262 -5,-5.79128 -5,-45.03102 l 0,-43.72439 39.926791,-86.56434 C 113.74367,172.034 132.85123,131.93955 134.24517,130.5456 c 1.4745,-1.4745 12.8715,2.59221 27.25145,9.72393 l 24.717,12.25838 -0.74967,101.25758 -0.74966,101.25757 -54.28572,20.77223 c -51.231196,19.60342 -61.552332,22.28976 -73.571427,19.14884 z"
       id="path4206"
       inkscape:connector-curvature="0" />
    <path
       style="fill:#6c5353;fill-opacity:1"
       d="m 53.674069,380.82057 c -0.99931,-7.29075 -1.816926,-26.47753 -1.816926,-42.63729 l 0,-29.38138 26.805123,-58.07699 c 14.74282,-31.94235 33.347984,-71.99703 41.344804,-89.0104 16.58954,-35.2945 13.24857,-34.0602 46.75733,-17.27419 l 19.19297,9.6146 -1.69891,99.2965 c -0.9344,54.61307 -2.49981,100.18451 -3.47868,101.26986 -4.57735,5.07521 -104.0363,39.45521 -114.141188,39.45521 -11.095811,0 -11.156039,-0.0616 -12.964523,-13.25592 z"
       id="path4208"
       inkscape:connector-curvature="0" />
    <path
       style="fill:#6c5353;fill-opacity:1"
       d="m 53.706636,385.46681 c -1.017221,-5.0861 -1.849493,-24.66063 -1.849493,-43.49894 l 0,-34.25148 38.879854,-83.83852 c 21.383923,-46.11119 40.505683,-86.06198 42.492813,-88.77953 3.34642,-4.57651 5.45248,-4.05835 28.54806,7.02369 l 24.93511,11.9647 -2.06206,99.28059 c -1.13413,54.60433 -2.53836,100.10631 -3.1205,101.11551 -2.48589,4.30951 -98.11102,37.71527 -111.395213,38.91489 -14.5103,1.31035 -14.587803,1.27293 -16.428571,-7.93091 z"
       id="path4210"
       inkscape:connector-curvature="0" />
    <path
       style="fill:#6c5353;fill-opacity:1"
       d="m 53.179419,384.51472 c -0.98659,-5.25897 -1.310491,-26.15183 -0.719782,-46.42857 l 1.074017,-36.8668 39.039169,-82.59171 c 21.471547,-45.42544 40.309657,-83.8622 41.862467,-85.41501 1.85964,-1.85964 11.29453,0.97539 27.64201,8.30599 l 24.81871,11.1293 -1.98626,100 c -1.67247,84.20216 -2.66814,100.52558 -6.30255,103.32691 -8.72996,6.72888 -101.24894,38.10166 -112.362579,38.10166 -10.521109,0 -11.39081,-0.63649 -13.065202,-9.56177 z"
       id="path4212"
       inkscape:connector-curvature="0" />
    <path
       style="fill:#6c5353;fill-opacity:1"
       d="M 53.65796,387.64792 C 52.710425,384.1122 51.917614,364.3156 51.896156,343.65546 l -0.03901,-37.56388 31.6455,-67.9382 c 39.827077,-85.50284 50.622207,-106.93403 53.863877,-106.93403 1.41921,0 12.97448,4.6843 25.67836,10.40956 l 23.09798,10.40956 0,44.84527 c 0,24.6649 -0.84906,70.19707 -1.8868,101.1826 l -1.88679,56.33732 -7.40829,3.83097 c -17.87754,9.24484 -98.390049,35.84186 -108.497784,35.84186 -9.077688,0 -11.394089,-1.16289 -12.805236,-6.42857 z"
       id="path4214"
       inkscape:connector-curvature="0" />
    <path
       style="fill:#d45500;fill-opacity:1"
       d="m 122.37287,740.49036 c -13.06506,-31.73602 -35.507971,-89.50573 -36.727919,-94.5404 -0.647034,-2.67028 10.327792,-7.2417 36.011169,-15 20.31801,-6.13755 38.49952,-11.15918 40.40335,-11.15918 3.47428,0 82.831,85.23557 80.85247,86.84214 -0.58014,0.47107 -21.62623,11.51532 -46.76908,24.54278 C 171,744.20316 146.43037,757.25006 141.54369,760.16882 l -8.88488,5.30684 -10.28594,-24.9853 z"
       id="path4216"
       inkscape:connector-curvature="0" />
    <path
       style="fill:#d45500;fill-opacity:1"
       d="m 131.92412,844.79078 0.067,-77.85715 54.74325,-28.57143 c 30.10878,-15.71428 55.79293,-29 57.07588,-29.5238 1.28295,-0.52381 2.33264,27.85348 2.33264,63.06066 l 0,64.01304 -55.52571,43.36791 c -30.53914,23.85235 -56.25343,43.36791 -57.14286,43.36791 -0.88943,0 -1.58701,-35.03572 -1.55017,-77.85714 z"
       id="path4218"
       inkscape:connector-curvature="0" />
    <path
       style="fill:#d45500;fill-opacity:1"
       d="m 133.36566,864.74536 c -1.08325,-30.22502 -1.54438,-64.46823 -1.02474,-76.09601 l 0.94479,-21.14143 54.69215,-28.22832 54.69214,-28.22831 1.98107,46.5126 c 1.0896,25.58193 1.54956,53.55703 1.02215,62.16688 l -0.95893,15.65427 -42.85715,33.61291 c -23.57143,18.48709 -48.18172,37.45794 -54.68955,42.15744 l -11.8324,8.54455 -1.96953,-54.95458 z"
       id="path4220"
       inkscape:connector-curvature="0" />
    <path
       style="fill:#d45500;fill-opacity:1"
       d="m 133.37797,876.17221 c -1.06343,-23.93836 -1.51923,-58.15887 -1.01289,-76.04558 l 0.92063,-32.52129 54.02909,-28.21153 c 29.71599,-15.51634 54.5072,-27.73342 55.09156,-27.14906 0.58436,0.58436 1.76981,28.55699 2.63434,62.16139 l 1.57187,61.09892 -49.52057,37.81902 c -27.23631,20.80045 -52.27906,39.74352 -55.65054,42.09571 l -6.12997,4.27671 -1.93352,-43.52429 z"
       id="path4222"
       inkscape:connector-curvature="0" />
    <path
       style="fill:#d45500;fill-opacity:1"
       d="m 133.37989,884.77234 c -1.0492,-19.23986 -1.49962,-53.54814 -1.00091,-76.24063 l 0.90673,-41.25906 53.99206,-28.08221 c 29.69564,-15.44521 54.555,-27.51927 55.24304,-26.83124 0.68803,0.68804 1.91588,28.67732 2.72854,62.19842 l 1.47757,60.94744 -52.08757,40 c -28.64817,22 -53.72203,40.95599 -55.71969,42.12442 -2.81671,1.6475 -4.06037,-5.72885 -5.53977,-32.85714 z"
       id="path4224"
       inkscape:connector-curvature="0" />
    <path
       style="fill:#d45500;fill-opacity:1"
       d="m 133.37742,890.50381 c -1.03762,-16.10645 -1.48273,-50.49875 -0.98914,-76.42732 l 0.89743,-47.14286 53.99293,-27.91183 c 29.69611,-15.35151 54.63048,-27.27428 55.40971,-26.49505 0.77923,0.77922 2.03696,28.76812 2.79495,62.19754 l 1.37817,60.78077 -52.50216,40.18265 c -28.87619,22.10045 -53.98562,41.06417 -55.79874,42.1416 -2.35891,1.40177 -3.83317,-6.37052 -5.18315,-27.3255 z"
       id="path4226"
       inkscape:connector-curvature="0" />
    <path
       style="fill:#d45500;fill-opacity:1"
       d="m 133.37054,896.22896 c -1.02208,-12.96957 -1.45928,-47.36676 -0.97157,-76.43818 l 0.88674,-52.85715 53.87253,-28.03223 c 29.62989,-15.41773 54.64559,-27.25917 55.59045,-26.31432 0.94486,0.94486 2.24688,29.0099 2.89339,62.36677 l 1.17547,60.64884 -52.4802,40.16633 c -28.86412,22.09148 -53.97157,41.03813 -55.79435,42.10365 -2.34817,1.37265 -3.85579,-4.93585 -5.17246,-21.64371 z"
       id="path4228"
       inkscape:connector-curvature="0" />
    <path
       style="fill:#d45500;fill-opacity:1"
       d="m 133.69999,904.71871 c -0.98625,-8.21036 -1.77525,-42.57079 -1.75333,-76.35651 l 0.0399,-61.42857 54.47971,-28.07465 c 29.96384,-15.44106 55.31473,-27.23964 56.33531,-26.21905 1.02059,1.02058 2.3295,29.17366 2.9087,62.56238 l 1.05309,60.70678 -52.45309,40.02391 c -28.8492,22.01316 -53.88498,40.8541 -55.63508,41.86878 -2.0885,1.21088 -3.79821,-3.28512 -4.97516,-13.08307 z"
       id="path4230"
       inkscape:connector-curvature="0" />
    <path
       style="fill:#d45500;fill-opacity:1"
       d="m 133.66447,906.46486 c -0.99403,-7.25225 -1.79434,-41.61361 -1.77847,-76.35857 l 0.0289,-63.17266 54.43778,-28.15241 c 29.94077,-15.48383 55.32064,-27.27048 56.39971,-26.19256 1.07906,1.07792 2.4093,29.36818 2.95607,62.86726 l 0.99414,60.90741 -51.98677,39.57087 c -28.59272,21.76397 -53.61964,40.50365 -55.61538,41.64372 -2.62115,1.49736 -4.13039,-1.58808 -5.43594,-11.11306 z"
       id="path4232"
       inkscape:connector-curvature="0" />
    <path
       style="fill:#d45500;fill-opacity:1"
       d="m 133.67613,908.9849 c -0.96585,-5.84248 -1.77025,-40.21368 -1.78754,-76.38044 l -0.0315,-65.75775 54.45293,-28.12265 c 29.94912,-15.46746 55.34198,-27.23563 56.42858,-26.1515 1.0866,1.08414 1.97564,29.71108 1.97564,63.61542 l 0,61.64424 -50,38.32559 c -27.5,21.07907 -52.08847,39.47853 -54.64103,40.88769 -3.81242,2.10466 -4.95456,0.66552 -6.39713,-8.0606 z"
       id="path4234"
       inkscape:connector-curvature="0" />
    <path
       style="fill:#d45500;fill-opacity:1"
       d="m 133.62649,910.78035 c -0.97314,-4.86569 -1.76935,-39.27806 -1.76935,-76.47192 l 0,-67.62521 54.4575,-28.03634 c 29.95162,-15.41999 55.34448,-27.15138 56.42857,-26.06975 1.08409,1.08163 1.97108,29.73071 1.97108,63.66463 l 0,61.69803 -49.92822,38.31168 c -27.46051,21.07142 -52.05717,39.45106 -54.65922,40.84364 -3.81562,2.04205 -5.07337,0.82022 -6.50036,-6.31476 z"
       id="path4236"
       inkscape:connector-curvature="0" />
    <path
       style="fill:#d45500;fill-opacity:1"
       d=""
       id="path4238"
       inkscape:connector-curvature="0" />
    <path
       style="fill:#d45500;fill-opacity:1"
       d="M 109.50156,705.00459 C 96.909901,673.13755 87.205202,646.09763 87.935564,644.91588 c 1.879301,-3.04077 63.516416,-22.26796 71.384996,-22.26796 4.72687,0 16.77523,11.13318 43.81387,40.48582 20.51178,22.2672 37.27829,41.23149 37.25892,42.14286 -0.0286,1.34292 -97.60077,53.78672 -105.68703,56.8054 -1.27096,0.47446 -12.6131,-25.21037 -25.20476,-57.07741 z"
       id="path4240"
       inkscape:connector-curvature="0" />
    <path
       style="fill:#d45500;fill-opacity:1"
       d="m 133.64286,910.8622 c -0.98215,-4.91071 -1.78572,-39.46901 -1.78572,-76.79622 l 0,-67.86766 8.63273,-3.57579 c 4.748,-1.96669 9.38952,-4.8003 10.31447,-6.29691 0.92496,-1.49661 -2.43639,-0.59154 -7.46967,2.01127 -5.03328,2.60281 -9.7869,4.09689 -10.5636,3.32019 -3.22085,-3.22085 -46.063513,-114.75425 -44.840193,-116.73362 1.871248,-3.02774 63.486193,-22.27554 71.307183,-22.27554 4.52968,0 15.75116,9.94828 37.86797,33.57143 33.0113,35.25964 44.66345,48.96982 42.93398,50.51709 -0.572,0.51175 -18.71858,10.19916 -40.32572,21.52757 -21.60715,11.32841 -39.28572,21.13629 -39.28572,21.7953 0,0.65901 18.13705,-7.88763 40.30455,-18.99253 22.1675,-11.10489 41.13179,-19.36549 42.14286,-18.35688 1.01107,1.0086 1.83831,29.662 1.83831,63.67422 l 0,61.8404 -52.85715,40.64666 c -29.07143,22.35567 -53.66071,40.70808 -54.64285,40.78314 -0.98215,0.0751 -2.58929,-3.8814 -3.57143,-8.79212 z"
       id="path4242"
       inkscape:connector-curvature="0" />
    <path
       style="fill:#d45500;fill-opacity:1"
       d="m 133.65796,913.3622 c -2.6144,-9.75561 -2.13783,-147.85714 0.51024,-147.85714 1.27108,0 4.8068,-1.9995 7.85714,-4.44333 5.26868,-4.22108 5.20636,-4.27778 -1.24584,-1.13359 -5.36819,2.61596 -7.29961,2.49927 -9.21386,-0.55666 C 127.80512,753.36814 89.682144,656.2178 88.564832,649.79078 87.705951,644.85029 91.827335,642.63424 119,633.42591 c 17.28571,-5.85782 34.86889,-10.67925 39.07374,-10.71429 6.10599,-0.0509 13.97741,6.69509 39.09789,33.50773 32.84892,35.06165 44.62004,48.93787 42.86838,50.53475 -0.572,0.52146 -16.14715,8.92486 -34.61144,18.67422 -18.46428,9.74936 -33.57143,18.26491 -33.57143,18.92345 0,0.65853 15.56471,-6.60501 34.58824,-16.14121 19.02353,-9.53621 35.41638,-16.51262 36.42857,-15.50315 1.01218,1.00947 1.84034,29.68641 1.84034,63.72652 l 0,61.89113 -52.85715,40.6078 c -29.07143,22.33429 -53.67147,40.66409 -54.66677,40.73286 -0.99529,0.0688 -2.58488,-2.7678 -3.53241,-6.30352 z"
       id="path4244"
       inkscape:connector-curvature="0" />
    <path
       style="fill:#d45500;fill-opacity:1"
       d="m 133.51286,912.53572 c -1.0015,-3.99029 -1.76006,-39.66886 -1.6857,-79.28572 l 0.13521,-72.03065 -14.37204,-34.89651 C 109.68571,707.12976 99.389702,681.04262 94.710308,668.35142 l -8.507991,-23.07492 12.504852,-5.3602 c 15.263211,-6.54258 52.867361,-17.26838 60.542101,-17.26838 3.22574,0 14.73131,9.3859 27.1435,22.14286 29.61874,30.44144 54.0358,57.7383 54.0358,60.40888 0,1.22431 -12.85714,8.9497 -28.57143,17.16753 -15.71428,8.21783 -28.57143,15.5117 -28.57143,16.2086 0,0.6969 12.99202,-5.25262 28.87116,-13.22114 15.87914,-7.96852 29.70057,-13.66137 30.71429,-12.65077 1.01372,1.0106 2.17537,29.69715 2.58144,63.74789 l 0.73832,61.91043 -17.88117,13.22996 c -9.83465,7.27647 -34.17019,25.5979 -54.07899,40.71428 -19.90879,15.11639 -36.80513,27.48434 -37.5474,27.48434 -0.74228,0 -2.16901,-3.26478 -3.1705,-7.25506 z"
       id="path4246"
       inkscape:connector-curvature="0" />
    <path
       style="fill:#d45500;fill-opacity:1"
       d="m 133.63773,915.39215 c -0.97932,-2.55209 -1.78059,-37.94581 -1.78059,-78.65272 l 0,-74.01256 -17.47856,-43.6109 c -9.61321,-23.986 -19.830491,-50.36328 -22.705067,-58.61618 l -5.226504,-15.00527 7.792362,-4.02958 c 9.965889,-5.15357 56.946139,-18.81702 64.700189,-18.81702 3.62837,0 14.75509,9.07768 28.89204,23.57143 28.75681,29.4826 52.59697,56.2294 52.59697,59.00968 0,1.16633 -11.57143,8.22172 -25.71428,15.67863 C 200.57143,728.36458 189,735.03388 189,735.72833 c 0,0.69446 11.70549,-4.6162 26.01219,-11.80145 14.3067,-7.18526 26.84242,-12.23643 27.85714,-11.22483 1.01473,1.01161 2.19883,29.69898 2.63134,63.74972 l 0.7864,61.91043 -52.92539,39.99872 c -29.10897,21.99929 -54.05443,40.37506 -55.43437,40.83503 -1.37994,0.46 -3.31025,-1.25172 -4.28958,-3.8038 z"
       id="path4248"
       inkscape:connector-curvature="0" />
    <path
       style="fill:#d45500;fill-opacity:1"
       d="m 133.5914,915.27138 c -0.95384,-2.48566 -1.73426,-37.68126 -1.73426,-78.21242 l 0,-73.69304 -15.32922,-38.21614 C 108.09685,704.1309 97.844464,677.62798 93.744848,666.25442 l -7.453847,-20.67922 7.783071,-4.01742 c 11.230298,-5.79679 55.406188,-18.90986 63.704368,-18.90986 5.10777,0 13.78059,6.90012 31.42271,25 33.49837,34.36756 51.22742,54.2517 51.22742,57.45446 0,1.4846 -9.5613,7.62123 -21.24734,13.63696 -11.68604,6.01573 -20.81781,11.36724 -20.29282,11.89223 0.525,0.52499 10.21807,-3.71051 21.54016,-9.41222 11.3221,-5.70172 21.41815,-9.53691 22.43567,-8.52266 1.01753,1.01425 2.22002,29.70391 2.67222,63.7548 l 0.82217,61.91071 -53.84151,40.71429 c -29.61283,22.39286 -54.59525,40.71429 -55.51649,40.71429 -0.92124,0 -2.45539,-2.03372 -3.40923,-4.5194 z"
       id="path4250"
       inkscape:connector-curvature="0" />
    <path
       style="fill:#d45500;fill-opacity:1"
       d="m 133.5914,915.27138 c -0.95384,-2.48566 -1.73426,-37.68579 -1.73426,-78.2225 0,-61.7831 -0.75508,-75.49236 -4.66876,-84.76632 -2.56782,-6.08477 -12.88743,-32.26996 -22.93247,-58.18932 -17.094031,-44.10797 -17.938732,-47.36374 -13.189413,-50.83652 6.788592,-4.96394 57.231413,-20.6088 66.447773,-20.6088 5.45805,0 13.8609,6.7033 33.12923,26.42857 32.64666,33.42085 49.78507,52.71697 49.78507,56.05296 0,1.43506 -8.2773,6.90078 -18.39399,12.14604 -10.11669,5.24525 -17.96108,9.96973 -17.43197,10.49885 0.52911,0.5291 8.9365,-3.0635 18.6831,-7.98356 9.7466,-4.92007 18.55528,-8.11408 19.57484,-7.09779 1.01955,1.01629 2.24239,29.72349 2.71742,63.79379 l 0.86368,61.946 -53.88336,40.679 c -29.63586,22.37345 -54.63696,40.679 -55.55801,40.679 -0.92105,0 -2.45504,-2.03372 -3.40888,-4.5194 z"
       id="path4252"
       inkscape:connector-curvature="0" />
    <path
       style="fill:#d45500;fill-opacity:1"
       d="m 133.5914,915.27138 c -0.95384,-2.48566 -1.73426,-37.29271 -1.73426,-77.34899 l 0,-72.8296 -23.03827,-58.79641 C 89.901547,658.01714 86.45183,646.85437 89.533154,643.89072 c 4.723589,-4.54322 58.165536,-21.2428 67.981116,-21.2428 5.45805,0 13.8609,6.7033 33.12923,26.42857 32.53456,33.30609 49.78507,52.71509 49.78507,56.01447 0,1.41389 -6.99518,6.23316 -15.54483,10.70948 -8.54966,4.47632 -15.10608,8.57752 -14.56981,9.11378 0.53626,0.53627 7.65928,-2.41214 15.82893,-6.55202 8.16965,-4.13987 15.69035,-6.69328 16.71267,-5.67423 1.02231,1.01905 2.24826,29.83826 2.72433,64.04269 l 0.86557,62.18989 -54.00713,40.43511 c -29.70391,22.23931 -54.70587,40.43512 -55.55989,40.43512 -0.85402,0 -2.33317,-2.03372 -3.28701,-4.5194 z"
       id="path4254"
       inkscape:connector-curvature="0" />
    <path
       style="fill:#d45500;fill-opacity:1"
       d="m 133.76191,917.886 c -1.04762,-1.0476 -1.90477,-35.647 -1.90477,-76.88752 l 0,-74.98277 -23.00618,-59.28996 c -18.770095,-48.373 -22.321139,-59.94403 -19.285714,-62.84224 4.936169,-4.71302 57.361614,-21.23559 67.379664,-21.23559 6.19432,0 13.70037,5.94967 35.14432,27.85714 32.74091,33.44862 48.33934,51.18134 48.33934,54.95347 0,1.53678 -6.10714,5.97321 -13.57143,9.85874 -7.46428,3.88552 -12.55592,7.12445 -11.31475,7.19762 1.24118,0.0732 7.47291,-2.52809 13.8483,-5.78057 6.3754,-3.25249 12.43132,-5.07659 13.45761,-4.05357 1.02629,1.02302 2.25549,29.84548 2.73156,64.04991 l 0.86557,62.18989 -54.00713,40.43511 c -29.70391,22.23931 -54.62914,40.43512 -55.38938,40.43512 -0.76024,0 -2.2394,-0.85715 -3.28701,-1.90478 z"
       id="path4256"
       inkscape:connector-curvature="0" />
    <path
       style="fill:#d45500;fill-opacity:1"
       d="m 133.82143,917.94555 c -1.08036,-1.08037 -1.96429,-35.65056 -1.96429,-76.82266 l 0,-74.85836 -23.1194,-59.30114 C 89.518072,657.66506 86.264989,647.04395 89.452021,643.99674 c 5.117948,-4.89342 57.436869,-21.34882 67.877229,-21.34882 6.87486,0 14.53929,6.53214 45.68012,38.93167 20.58056,21.41241 37.4192,40.66741 37.4192,42.78888 0,2.12147 -4.82143,6.40254 -10.71428,9.51349 -5.89286,3.11095 -9.68616,5.71309 -8.42955,5.78254 1.25661,0.0695 6.19752,-1.8971 10.9798,-4.37011 4.78229,-2.47302 9.53987,-3.65427 10.5724,-2.625 1.03254,1.02927 2.26701,29.87665 2.74326,64.1053 l 0.86591,62.23391 -53.0234,39.6768 c -29.16287,21.82224 -54.06146,40.02503 -55.3302,40.4506 -1.26874,0.4256 -3.19072,-0.11 -4.27108,-1.19045 z"
       id="path4258"
       inkscape:connector-curvature="0" />
    <path
       style="fill:#d45500;fill-opacity:1"
       d="m 133.76191,917.886 c -1.04762,-1.0476 -1.90477,-35.64898 -1.90477,-76.89194 l 0,-74.98719 -21.10039,-53.82233 C 84.861049,646.13048 85.138039,647.03867 89.726466,643.23062 c 5.568993,-4.62186 47.441574,-17.83941 62.253444,-19.651 l 12.97991,-1.58754 37.73437,39.25959 c 20.75391,21.59277 37.73438,40.98499 37.73438,43.09381 0,2.10882 -3.53571,5.8857 -7.85714,8.39306 -7.0782,4.10687 -4.39057,3.99489 6.05308,-0.2522 6.31778,-2.56925 7.43779,7.83408 7.47933,69.47285 l 0.039,57.88269 -53.49869,39.97444 c -29.42429,21.98595 -54.28143,39.97446 -55.2381,39.97446 -0.95667,0 -2.59655,-0.85715 -3.64416,-1.90478 z"
       id="path4260"
       inkscape:connector-curvature="0" />
    <path
       style="fill:#d45500;fill-opacity:1"
       d="m 133.76191,917.886 c -1.04762,-1.0476 -1.90477,-35.32804 -1.90477,-76.17873 l 0,-74.27399 -23.10847,-59.89646 C 89.504765,657.6572 86.279503,647.0137 89.462958,643.89314 94.697137,638.76237 135.1576,625.52172 151.52568,623.58316 l 13.3656,-1.58296 37.76865,39.10963 c 20.77275,21.5103 37.76864,40.87786 37.76864,43.03903 0,2.16117 -2.25,5.34039 -5,7.06494 -4.4093,2.76511 -4.28237,2.94119 1.07439,1.49042 8.78854,-2.38019 9.55633,3.15818 9.60088,69.25496 l 0.039,57.8827 -53.49869,39.97444 c -29.42429,21.98595 -54.28143,39.97446 -55.2381,39.97446 -0.95667,0 -2.59655,-0.85715 -3.64416,-1.90478 z"
       id="path4262"
       inkscape:connector-curvature="0" />
    <path
       style="fill:#d45500;fill-opacity:1"
       d="m 133.76191,917.886 c -1.04762,-1.0476 -1.90477,-35.16338 -1.90477,-75.81283 l 0,-73.90808 -17.45605,-44.90144 C 87.674503,654.51604 85.658241,648.10306 89.365789,643.63574 c 4.152295,-5.00321 55.229711,-20.98782 67.064721,-20.98782 7.9246,0 13.87502,4.95877 46.54217,38.78577 20.60074,21.33218 37.45589,40.36075 37.45589,42.28571 0,1.92497 -1.60714,5.23142 -3.57143,7.34767 -2.88094,3.10382 -2.81918,3.41973 0.31944,1.63396 2.30442,-1.31113 4.90775,-0.60832 6.38482,1.7237 1.37168,2.16561 2.51364,31.2704 2.53771,64.67731 l 0.0438,60.73984 -53.49869,39.97444 c -29.42429,21.98595 -54.28143,39.97446 -55.2381,39.97446 -0.95667,0 -2.59655,-0.85715 -3.64416,-1.90478 z"
       id="path4264"
       inkscape:connector-curvature="0" />
    <path
       style="fill:#ff2a2a;fill-opacity:1"
       d="m 133.76191,917.886 c -1.04762,-1.0476 -1.90477,-35.18953 -1.90477,-75.87092 l 0,-73.96618 -19.6222,-50.55763 c -26.696032,-68.78372 -27.691357,-72.05897 -22.85427,-75.205 7.41977,-4.82581 57.9932,-19.63835 67.04984,-19.63835 7.92718,0 13.89219,4.97655 46.76028,39.01163 24.3752,25.24065 37.24531,40.65101 36.45954,43.6558 -0.66796,2.55429 0.5196,6.26403 2.63902,8.24387 3.00181,2.8041 3.85351,17.15733 3.85351,64.94118 l 0,61.34148 -53.49869,39.97444 c -29.42429,21.98595 -54.28143,39.97446 -55.2381,39.97446 -0.95667,0 -2.59655,-0.85715 -3.64416,-1.90478 z"
       id="path4266"
       inkscape:connector-curvature="0" />
    <path
       style="fill:#800000;fill-opacity:1"
       d="m 133.69879,902.28674 c -1.01291,-9.69095 -1.84165,-44.23221 -1.84165,-76.75835 l 0,-59.13843 -21.59753,-56.3838 C 98.380967,678.99507 89.059538,650.87393 89.545324,647.51474 c 0.71713,-4.95892 5.450804,-7.5202 25.168966,-13.61832 41.22278,-12.74875 42.95975,-12.79037 57.39985,-1.3753 18.02603,14.24978 65.45729,66.92435 65.45729,72.69328 0,2.67415 1.59353,6.45562 3.54117,8.40326 2.52395,2.52395 3.8444,21.02062 4.59674,64.39025 l 1.05556,60.84907 -48.16817,35.68306 c -26.49248,19.62568 -51.51799,37.86185 -55.61223,40.52485 l -7.44407,4.84177 -1.84164,-17.61992 z"
       id="path4268"
       inkscape:connector-curvature="0" />
    <path
       style="fill:#800000;fill-opacity:1"
       id="path4270"
       d="m 142.30588,247.29213 c 1.04462,-0.85085 2.20562,-1.57605 3.13386,-2.55255 2.47913,-2.60804 4.25387,-5.84423 6.12119,-8.87197 3.17573,-5.14924 6.25017,-10.3337 9.23682,-15.59465 4.05173,-8.51855 10.01649,-15.32477 17.10717,-21.38247 17.68342,-14.65309 38.85307,-24.13502 58.58558,-35.68884 -10.80519,6.20334 -21.56185,12.49198 -32.41556,18.61003 -2.31506,1.30496 4.32626,-3.09996 6.61714,-4.44692 11.95433,-7.02877 29.9073,-18.72981 45.22816,-25.86335 7.29759,-2.73383 14.01892,-6.64303 21.17368,-9.70151 0,0 -32.93627,26.12465 -32.93627,26.12465 l 0,0 c -7.07123,3.33954 -14.08406,6.78201 -21.22217,9.97602 -26.90687,14.61504 43.59037,-27.4292 23.73005,-13.77467 -1.1426,0.78557 -2.16457,1.74854 -3.35596,2.45791 -13.10891,7.80522 -26.35156,15.38359 -39.52734,23.07538 -12.81345,7.11253 -33.94356,18.8313 24.43677,-14.52116 1.30356,-0.74472 -2.4742,1.70119 -3.71688,2.5436 -5.4779,3.71348 -2.31386,1.38505 -7.60569,5.52239 -7.21784,5.5854 -13.90525,11.66753 -17.9648,20.03404 -2.94014,5.30405 -6.06672,10.45157 -9.15674,15.66554 -1.88589,3.18217 -3.44009,6.56144 -5.45229,9.66528 -0.7497,1.15642 -1.68488,2.18144 -2.52731,3.27215 0,0 -39.48941,15.4511 -39.48941,15.4511 z"
       inkscape:connector-curvature="0" />
    <path
       style="fill:#ff6600;fill-opacity:1"
       id="path4272"
       d="m 196.33308,295.88798 c 9.65601,-2.20922 19.50932,-3.17024 29.36622,-3.92056 7.80151,0.23926 14.71296,-2.96124 21.71171,-5.89004 5.53778,-3.11107 11.66292,-5.08893 17.77664,-6.7076 7.7703,-1.60425 15.71675,-1.93413 23.62308,-2.19991 5.169,-0.0713 2.59271,-0.042 7.72887,-0.0882 0,0 -34.07254,24.82165 -34.07254,24.82165 l 0,0 c -5.0958,0.0844 -2.53791,0.0223 -7.67365,0.18723 -7.74956,0.3524 -15.57288,0.83087 -23.04093,3.10335 -5.9777,2.03652 -11.87895,4.16771 -17.52789,7.02423 -7.15548,2.86736 -14.49783,4.70354 -22.26993,4.68175 -9.84867,0.83307 -19.72099,1.98489 -29.21734,4.85517 0,0 33.59576,-25.86711 33.59576,-25.86711 z"
       inkscape:connector-curvature="0" />
    <path
       style="fill:#ff6600;fill-opacity:1"
       id="path4274"
       d="m 190.97832,758.5822 c 19.14518,-15.23262 42.13662,-26.23761 63.12111,-38.13988 8.14952,-4.38609 16.83629,-7.71083 25.77431,-10.07405 6.31924,-1.89845 13.02128,-1.14146 19.39502,-2.4699 6.73782,-1.27976 13.56726,-1.7485 20.40596,-2.02616 6.60231,-0.0537 13.10217,-2.42248 19.14011,-4.97507 7.12802,-3.14559 13.99087,-6.76062 20.89691,-10.39175 6.22747,-2.93677 12.75328,-5.13285 19.26629,-7.3414 0,0 -33.2055,25.87548 -33.2055,25.87548 l 0,0 c -6.4125,2.31221 -12.87124,4.56593 -18.87232,7.84708 -6.94468,3.73436 -14.0881,7.03959 -21.37102,10.0605 -6.47548,2.1156 -12.95222,4.1527 -19.86464,3.90355 -6.7981,0.42561 -13.55173,1.23184 -20.26233,2.41176 -6.35712,0.56179 -12.77308,0.87987 -18.91034,2.81952 -8.65229,2.70524 -17.04009,6.15852 -25.00575,10.50774 10.22824,-5.98274 20.45034,-11.97598 30.68473,-17.9482 1.69394,-0.98849 -3.36715,2.01232 -5.06334,2.99696 -4.62783,2.68644 -9.52093,5.1783 -13.8052,8.41656 -1.07518,0.81267 -2.02442,1.77976 -3.03662,2.66963 0,0 -39.28738,15.85763 -39.28738,15.85763 z"
       inkscape:connector-curvature="0" />
    <path
       style="fill:#ff6600;fill-opacity:1"
       id="path4276"
       d="m 253.47594,795.88798 c 8.04116,-3.92213 16.60851,-6.25462 25.04849,-9.08807 7.45467,-2.5286 15.30993,-3.43423 23.13329,-3.81857 7.62559,-0.32225 15.25851,-0.1974 22.88815,-0.18985 8.11522,0.0146 16.23032,0.0408 24.34548,0.056 8.00989,0.0224 16.01977,-0.0305 24.02963,-0.0163 1.22245,-0.16576 2.44619,-0.32232 3.66736,-0.49728 3.02589,-0.43353 4.09756,-0.4703 6.95317,-1.54535 1.08547,-0.40864 4.17039,-2.02509 3.16232,-1.45148 -35.57736,20.24441 -42.52913,26.40759 -29.80368,15.74857 0.99953,-0.95765 1.99906,-1.91531 2.9986,-2.87296 0,0 38.92015,-16.03111 38.92015,-16.03111 l 0,0 c -1.00202,0.96622 -2.00404,1.93244 -3.00605,2.89866 -14.70013,15.8125 -35.34515,27.86284 -56.99493,28.528 -7.9899,0.0132 -15.97983,-0.0408 -23.96976,-0.0322 -8.12601,-0.002 -16.25174,-0.01 -24.37779,-0.0332 -7.58727,-0.0101 -15.18347,-0.006 -22.75881,0.46804 -7.62705,0.70185 -15.18095,1.93718 -22.41705,4.55343 -8.637,2.67278 -16.93751,6.08324 -25.41433,9.19087 0,0 33.59576,-25.86711 33.59576,-25.86711 z"
       inkscape:connector-curvature="0" />
    <path
       style="fill:#0000ff;fill-opacity:1"
       id="path4278"
       d="m 202.76347,836.58213 c 8.2538,5.41781 17.08064,9.82535 26.08983,13.82565 7.1146,2.26505 14.14086,4.23315 20.94305,7.39598 7.15358,3.07307 14.85683,4.82335 22.4959,6.23898 7.68114,1.29409 15.4824,1.51841 23.25388,1.63674 7.1154,0.073 14.23158,0.0371 21.34726,0.023 4.68391,-0.49202 9.57201,0.59673 14.23602,-0.0195 2.15425,-0.28463 5.77067,-1.72368 7.71461,-2.42443 13.12163,-6.5249 34.9308,-18.75872 -24.02824,14.10819 -1.28852,0.71828 2.47103,-1.61429 3.66477,-2.48101 3.86465,-2.80595 4.05653,-3.16503 7.65098,-6.43176 6.21703,-6.59465 12.27484,-13.28016 19.36441,-18.9558 15.6765,-10.70535 2.06585,-1.54833 42.76424,-24.35418 0,0 -33.05249,26.20185 -33.05249,26.20185 l 0,0 c 33.90945,-19.79733 44.16599,-24.80654 29.44441,-17.48209 -7.32111,5.44519 -13.97683,11.52212 -19.78576,18.6033 -16.13528,16.85487 -37.75681,27.92875 -59.29329,36.49445 -7.51856,1.88712 -15.09324,1.65465 -22.80815,1.54756 -7.1469,0.0154 -14.29455,0.0541 -21.44046,-0.10106 -7.8828,-0.28772 -15.79178,-0.74569 -23.5412,-2.31292 -7.86998,-1.66743 -15.79844,-3.48836 -23.10584,-6.94833 -6.85179,-2.87652 -14.07078,-4.53296 -20.87066,-7.52638 -9.10414,-4.37866 -18.00161,-9.12855 -26.75476,-14.17257 0,0 35.71149,-22.86568 35.71149,-22.86568 z"
       inkscape:connector-curvature="0" />
    <path
       style="fill:#0000ff;fill-opacity:1"
       id="path4280"
       d="m 144.7716,343.15048 c 0.40063,13.95742 3.19004,27.64583 7.15376,40.98437 3.39732,9.01622 4.83474,18.48538 6.62211,27.88622 1.43431,6.91279 2.05826,13.94207 3.50283,20.84911 0.65617,6.46092 3.06386,12.18997 5.70491,18.0322 3.56786,7.88115 6.19251,16.18852 8.37915,24.55046 2.01494,7.57539 2.67057,13.61155 -0.9733,20.70339 -5.85095,8.1589 -12.10098,16.0208 -17.90661,24.21136 -5.10819,7.61723 -10.74917,14.85193 -15.80533,22.50392 -3.76682,6.0261 -4.81031,12.93223 -5.34614,19.87683 -0.34835,7.01558 -0.27957,14.04288 -0.22477,21.06427 0.062,7.8944 2.16611,15.05815 5.5982,22.08618 3.70887,6.89266 6.93082,14.16787 11.91347,20.25742 5.63661,5.87274 11.77348,11.11286 16.50697,17.77166 3.17961,4.99003 5.50891,10.45693 7.7743,15.90413 0,0 -36.77718,20.55873 -36.77718,20.55873 l 0,0 c -2.0371,-5.16995 -4.15754,-10.36546 -7.14282,-15.07291 -4.88969,-6.48998 -11.19587,-11.50238 -16.60943,-17.52839 -4.96069,-6.48552 -8.45807,-13.87948 -12.17998,-21.11705 -3.80172,-7.56916 -6.370085,-15.12222 -6.698183,-23.6699 -0.01737,-7.11251 -0.131744,-14.22855 0.12196,-21.33806 0.38275,-7.49005 1.139099,-14.9592 4.484383,-21.80754 4.83323,-7.93663 10.80968,-15.05581 15.99027,-22.7602 5.50457,-8.22139 11.65657,-15.97847 17.58965,-23.88901 4.72845,-6.0331 4.51805,-10.33824 2.67143,-17.72656 -1.98507,-8.14685 -4.51814,-16.25096 -8.10109,-23.84059 -2.79262,-6.10002 -5.69663,-11.98857 -6.22395,-18.80679 -1.46464,-6.94952 -2.09537,-13.9879 -3.44749,-20.96183 -1.80184,-9.30885 -2.65762,-18.8182 -5.93695,-27.8121 -3.85176,-13.54772 -6.74926,-27.31602 -8.07127,-41.36488 0,0 37.4311,-19.54444 37.4311,-19.54444 z"
       inkscape:connector-curvature="0" />
    <path
       style="fill:none;fill-rule:evenodd;stroke:#000000;stroke-width:1px;stroke-linecap:butt;stroke-linejoin:miter;stroke-opacity:1"
       d="m 151.42857,103.79078 c -3.80952,0.95238 -7.57806,2.08704 -11.42857,2.85714 -8.18514,1.63703 4.76471,-6.43068 -11.42857,5.71428 -1.0775,0.80813 -1.65247,2.25481 -2.85714,2.85715 -0.85184,0.42592 -1.95364,-0.30117 -2.85715,0 -2.0203,0.67343 -3.69398,2.18371 -5.71428,2.85714 -8.50524,2.83508 5.8623,-6.76534 -8.57143,2.85714 -2.24133,1.49422 -3.30493,4.50961 -5.71429,5.71429 -1.70367,0.85183 -4.010612,-0.85184 -5.714283,0 -2.409354,1.20468 -3.304931,4.50961 -5.714286,5.71428 -0.851835,0.42592 -2.005307,-0.42591 -2.857142,0 -1.204678,0.60234 -1.652466,2.25481 -2.857143,2.85715 -3.94102,1.97051 -2.555636,-3.46016 -5.714286,2.85714 -1.815413,3.63083 -5.103997,16.94856 -5.714286,20 -0.186777,0.93389 0.425918,2.00531 0,2.85714 -0.602338,1.20468 -2.254804,1.65247 -2.857143,2.85715 -0.851835,1.70367 0.851836,4.01061 0,5.71428 -1.204677,2.40936 -5.185999,3.07286 -5.714285,5.71429 -1.494218,7.47109 1.077496,15.31467 0,22.85714 -2.886746,20.20722 -0.904792,1.80958 -5.714286,11.42857 -0.908489,1.81698 0.788782,11.91937 0,14.28572 -0.425918,1.27775 -2.254804,1.65246 -2.857143,2.85714 -0.425918,0.85183 0.425918,2.00531 0,2.85714 -0.602338,1.20468 -2.431225,1.57939 -2.857143,2.85714 -0.602338,1.80702 0,3.80953 0,5.71429 0,0.95238 0.425918,2.00531 0,2.85714 -0.602338,1.20468 -2.254804,1.65247 -2.857143,2.85715 -0.425917,0.85183 0.425918,2.0053 0,2.85714 -1.225276,2.45055 -11.07379,9.65466 -11.428571,11.42857 -1.098901,5.49451 1.098901,11.64835 0,17.14286 -0.590642,2.95321 -2.1267,5.64965 -2.857143,8.57143 -0.461972,1.84789 0,3.80952 0,5.71428 0,2.85714 0,5.71429 0,8.57143 0,11.42857 0,22.85714 0,34.28571 0,0.40782 0.328119,13.79354 0,14.28572 -1.494218,2.24133 -4.220067,3.47296 -5.714286,5.71428 -1.056571,1.58486 0.851836,4.01062 0,5.71429 -0.602338,1.20468 -2.431225,1.57939 -2.857142,2.85714 -1.012012,3.03604 1.012011,8.39254 0,11.42857 -0.673435,2.02031 -2.183708,3.69399 -2.857143,5.71429 -0.537332,1.612 0,6.69398 0,8.57143 0,4.7619 0,9.52381 0,14.28571 0,1.97292 -0.434337,10.5599 0,11.42857 0.602338,1.20468 1.736479,2.11004 2.857143,2.85715 1.771924,1.18128 3.942361,1.67586 5.714285,2.85714 1.120664,0.74711 1.57939,2.43123 2.857143,2.85714 1.807016,0.60234 4.010615,-0.85183 5.714286,0 2.409354,1.20468 3.809524,3.80953 5.714286,5.71429 0.952381,0.95238 1.579389,2.43122 2.857142,2.85714 3.497999,1.166 7.854966,-0.8934 11.428572,0 23.781488,5.94537 -3.448877,-0.19724 14.285714,5.71429 2.083321,0.69444 21.253547,0 22.857143,0 1.90476,0 3.90727,-0.60234 5.71429,0 20.69547,6.89849 -4.5046,-0.82373 8.57142,5.71428 0.85184,0.42592 1.90477,0 2.85715,0 0.95238,0 2.0053,0.42592 2.85714,0 1.20468,-0.60234 1.57939,-2.43122 2.85714,-2.85714 1.80702,-0.60234 3.90727,0.60234 5.71429,0 1.27775,-0.42592 1.65246,-2.2548 2.85714,-2.85714 0.85184,-0.42592 2.00531,0.42592 2.85714,0 1.20468,-0.60234 1.57939,-2.43123 2.85715,-2.85715 1.80701,-0.60233 3.80952,0 5.71428,0 0.95238,0 2.00531,0.42592 2.85715,0 1.20467,-0.60233 1.90476,-1.90476 2.85714,-2.85714 2.90434,-2.90434 3.95879,-4.56112 8.57143,-5.71428 1.84789,-0.46198 3.90727,0.60233 5.71428,0 1.27776,-0.42592 1.57939,-2.43123 2.85715,-2.85715 2.57142,-0.85714 6,0.85715 8.57142,0 2.02031,-0.67343 3.64829,-2.34064 5.71429,-2.85714 1.84789,-0.46197 3.80952,0 5.71429,0 2.85714,0 5.71428,0 8.57142,0 30.9658,0 -13.22966,-0.62628 28.57143,2.85714 5.69455,0.47455 11.62992,-1.50352 17.14286,0 5.35761,1.46117 9.21106,6.31603 14.28571,8.57143 3.58833,1.59481 7.57806,2.08704 11.42858,2.85714 0.93388,0.18678 2.0053,-0.42591 2.85714,0 1.20468,0.60234 1.57939,2.43123 2.85714,2.85715 1.3079,0.43596 12.69098,0 14.28572,0 9.52381,0 19.04761,0 28.57142,0 32.38096,0 64.76191,0 97.14286,0 13.33333,0 26.66667,0 40,0 1.84197,0 10.81469,0.40926 11.42857,0 2.24133,-1.49422 3.80953,-3.80953 5.71429,-5.71429 0.95238,-0.95238 1.65246,-2.2548 2.85714,-2.85714 0.85184,-0.42592 1.95364,0.30117 2.85714,0 2.02031,-0.67344 3.69398,-2.18371 5.71429,-2.85714 3.72526,-1.24176 7.91636,-1.10104 11.42857,-2.85715 2.40936,-1.20467 3.40442,-4.32836 5.71429,-5.71428 2.5825,-1.54951 5.77514,-1.73863 8.57143,-2.85715 1.97727,-0.7909 3.64828,-2.34064 5.71428,-2.85714 1.84789,-0.46197 3.90727,0.60234 5.71429,0 0.35493,-0.11831 8.32634,-8.08126 8.57143,-8.57143 0.42591,-0.85183 -0.52829,-2.06471 0,-2.85714 0.9541,-1.43115 15.57316,-15.96559 17.14285,-17.14286 1.70367,-1.27775 4.20844,-1.35129 5.71429,-2.85714 1.50585,-1.50585 1.57939,-4.01061 2.85714,-5.71429 2.42437,-3.23248 5.71429,-5.71428 8.57143,-8.57142 1.82983,-1.82983 8.75482,-9.64607 11.42857,-11.42858 1.77193,-1.18128 3.69398,-2.1837 5.71429,-2.85714 0.90351,-0.30117 2.06471,0.52829 2.85714,0 2.24133,-1.49422 3.55929,-4.09804 5.71429,-5.71428 1.43883,-6.29476 5.87768,-1.51028 8.57142,-2.85715 1.20468,-0.60234 1.73648,-2.11003 2.85715,-2.85714 1.77192,-1.18128 4.01061,-1.57939 5.71428,-2.85714 3.52056,-2.64042 7.79125,-9.00369 11.42857,-11.42857 1.77193,-1.18129 4.20844,-1.3513 5.71429,-2.85715 0.67344,-0.67343 -0.42592,-2.0053 0,-2.85714 0.60234,-1.20468 2.2548,-1.65247 2.85714,-2.85714 0.32019,-0.64037 0,-10.74963 0,-11.42857 0,-11.42858 0,-22.85715 0,-34.28572 0,-17.14286 0,-34.28571 0,-51.42857 0,-6.66667 0,-13.33333 0,-20 0,-2.85714 0.56033,-5.76977 0,-8.57143 -0.41764,-2.08823 -2.1837,-3.69398 -2.85714,-5.71428 -0.30117,-0.90351 0,-1.90477 0,-2.85715 0,-4.7619 0,-9.52381 0,-14.28571 0,-2.85714 0,-5.71429 0,-8.57143 0,-0.95238 0.23099,-1.9332 0,-2.85714 -0.73044,-2.92177 -2.1267,-5.64966 -2.85714,-8.57143 -0.46198,-1.84789 0.85183,-4.01062 0,-5.71429 -0.60234,-1.20467 -2.43123,-1.57939 -2.85715,-2.85714 -1.63538,-4.90616 2.50327,-5.89122 -2.85714,-8.57143 -1.70367,-0.85183 -4.12943,1.05657 -5.71428,0 -2.24133,-1.49422 -3.80953,-3.80952 -5.71429,-5.71428 -2.85714,-0.95238 -5.98892,-1.30764 -8.57143,-2.85715 -2.30986,-1.38591 -3.40442,-4.32836 -5.71428,-5.71428 -2.58251,-1.54951 -5.98893,-1.30764 -8.57143,-2.85715 -2.30987,-1.38591 -3.30493,-4.5096 -5.71429,-5.71428 -1.70367,-0.85184 -3.86639,0.46197 -5.71428,0 -13.79699,-3.44925 0.1416,-1.35777 -8.57143,-5.71429 -2.69374,-1.346867 -5.64966,-2.126697 -8.57143,-2.85714 -0.92395,-0.230986 -1.90476,0 -2.85714,0 -3.80953,0 -7.61905,0 -11.42858,0 -0.95238,0 -1.95363,0.30117 -2.85714,0 -2.0203,-0.673435 -3.69398,-2.183707 -5.71428,-2.857142 -1.80702,-0.602339 -3.80953,0 -5.71429,0 -3.76471,0 -7.66387,0 -11.42857,0 -1.90476,0 -3.83544,0.313141 -5.71429,0 -3.87334,-0.645557 -7.55523,-2.211587 -11.42857,-2.857143 -8.57143,-1.428572 -5.71428,2.857143 -17.14286,0 -4.132,-1.033002 -7.47402,-4.132467 -11.42857,-5.714286 -1.35935,-0.54374 -16.52732,0 -20,0 -1.12946,0 -13.06547,-0.610119 -14.28571,0 -1.20468,0.602339 -1.65247,2.254804 -2.85714,2.857143 -1.70368,0.851835 -4.01062,-0.851836 -5.71429,0 -1.20468,0.602338 -1.65247,2.254804 -2.85714,2.857143 -0.85184,0.425917 -1.90476,0 -2.85715,0 -1.90476,0 -3.90727,-0.602339 -5.71428,0 -1.27775,0.425917 -1.53643,2.593 -2.85714,2.857143 -3.73555,0.747109 -7.61905,0 -11.42858,0 -12.38095,0 -24.7619,0 -37.14285,0 -26.66667,0 -53.33334,0 -80,0 -23.80953,0 -47.61905,0 -71.42857,0 -7.61905,0 -15.2381,0 -22.85715,0 -4.7619,0 -9.6916,-1.25294 -14.28571,0 -6.16365,1.680995 -10.75409,8.571432 -17.14286,8.571432 -5.55329,0 -8.9281,-7.110266 -14.28571,-8.571432 -5.51294,-1.503528 -11.42857,0 -17.14286,0 -8.57143,0 -17.14286,0 -25.714286,0 -3.809524,0 -7.619047,0 -11.428571,0 -0.952381,0 -3.158312,-0.903508 -2.857143,0 0.65447,1.963411 8.427588,13.085322 11.428571,14.285712 2.652791,1.06112 5.918638,-1.06111 8.571429,0 2.50107,1.00043 3.55929,4.09804 5.71429,5.71429 1.70367,1.27775 3.94236,1.67586 5.71428,2.85714 1.12067,0.74711 1.65247,2.2548 2.85714,2.85714 0.64038,0.32019 10.74963,0 11.42858,0 0.95238,0 2.85714,-0.95238 2.85714,0 0,0.95238 -1.90476,0 -2.85714,0"
       id="path4282"
       inkscape:connector-curvature="0" />
    <text
       xml:space="preserve"
       style="font-style:normal;font-variant:normal;font-weight:500;font-stretch:normal;font-size:48.42687225px;line-height:125%;font-family:KacstBook;-inkscape-font-specification:'KacstBook, Medium';text-align:start;letter-spacing:0px;word-spacing:0px;writing-mode:lr-tb;text-anchor:start;fill:#e70015;fill-opacity:1;stroke:none;stroke-width:1px;stroke-linecap:butt;stroke-linejoin:miter;stroke-opacity:1"
       x="75.793907"
       y="837.28168"
       id="text4284"
       sodipodi:linespacing="125%"
       transform="matrix(0.80711456,-0.10025483,0,1.2389815,0,0)"><tspan
         sodipodi:role="line"
         id="tspan4286"
         x="75.793907"
         y="837.28168">Client - computer in front of us</tspan></text>
    <text
       xml:space="preserve"
       style="font-style:normal;font-variant:normal;font-weight:500;font-stretch:normal;font-size:40px;line-height:125%;font-family:aakar;-inkscape-font-specification:'aakar, Medium';text-align:start;letter-spacing:0px;word-spacing:0px;writing-mode:lr-tb;text-anchor:start;fill:#000000;fill-opacity:1;stroke:none;stroke-width:1px;stroke-linecap:butt;stroke-linejoin:miter;stroke-opacity:1"
       x="5.4495672e-07"
       y="466.64792"
       id="text4307"
       sodipodi:linespacing="125%"><tspan
         sodipodi:role="line"
         id="tspan4309"
         x="5.4495672e-07"
         y="466.64792">The</tspan><tspan
         sodipodi:role="line"
         x="5.4495672e-07"
         y="516.64795"
         id="tspan4311">&quot;Cloud&quot;</tspan></text>
    <text
       xml:space="preserve"
       style="font-style:normal;font-variant:normal;font-weight:500;font-stretch:normal;font-size:40px;line-height:125%;font-family:aakar;-inkscape-font-specification:'aakar, Medium';text-align:start;letter-spacing:0px;word-spacing:0px;writing-mode:lr-tb;text-anchor:start;fill:#000000;fill-opacity:1;stroke:none;stroke-width:1px;stroke-linecap:butt;stroke-linejoin:miter;stroke-opacity:1"
       x="288.57144"
       y="478.07648"
       id="text4313"
       sodipodi:linespacing="125%"><tspan
         sodipodi:role="line"
         id="tspan4315"
         x="288.57144"
         y="478.07648">Through the Internet,</tspan><tspan
         sodipodi:role="line"
         x="288.57144"
         y="528.07648"
         id="tspan4317">wired or wifi</tspan></text>
  </g>
</svg>
